<svg width="14" height="14" viewBox="0 0 14 14" fill="none" xmlns="http://www.w3.org/2000/svg" id="comment">
<path d="M10 6.65625C10 6.84375 9.92708 7 9.78125 7.125C9.65625 7.25 9.5 7.3125 9.3125 7.3125H2.65625L0 10V0.65625C0 0.46875 0.0625 0.3125 0.1875 0.1875C0.3125 0.0625 0.46875 0 0.65625 0H9.3125C9.5 0 9.65625 0.0625 9.78125 0.1875C9.92708 0.3125 10 0.46875 10 0.65625V6.65625ZM12.6562 2.65625C12.8438 2.65625 13 2.71875 13.125 2.84375C13.25 2.96875 13.3125 3.125 13.3125 3.3125V13.3125L10.6562 10.6562H3.3125C3.125 10.6562 2.96875 10.5938 2.84375 10.4688C2.71875 10.3438 2.65625 10.1875 2.65625 10V8.65625H11.3125V2.65625H12.6562Z" fill="#AE7AFF"/>
</svg>
